<?xml version="1.0" standalone="no"?><!DOCTYPE svg PUBLIC "-//W3C//DTD SVG 1.1//EN" "http://www.w3.org/Graphics/SVG/1.1/DTD/svg11.dtd"><svg t="1727550448234" class="icon" viewBox="0 0 1024 1024" version="1.1" xmlns="http://www.w3.org/2000/svg" p-id="18195" width="256" height="256" xmlns:xlink="http://www.w3.org/1999/xlink"><path d="M850.618182 470.109091c-8.145455 0-15.127273 3.490909-20.945455 9.309091s-10.472727 15.127273-11.636363 25.6h61.672727c0-23.272727-9.309091-34.909091-29.090909-34.909091zM492.218182 551.563636c0 5.818182 2.327273 10.472727 5.818182 13.963637 3.490909 3.490909 9.309091 5.818182 16.290909 5.818182 9.309091 0 17.454545-3.490909 23.272727-10.472728 5.818182-6.981818 9.309091-15.127273 9.309091-24.436363v-11.636364l-30.254546 3.490909c-16.290909 2.327273-24.436364 10.472727-24.436363 23.272727z" fill="#d81e06" p-id="18196"></path><path d="M870.4 1.163636H153.6C68.654545 1.163636 0 69.818182 0 153.6v716.8C0 955.345455 68.654545 1024 153.6 1024h716.8C955.345455 1024 1024 955.345455 1024 870.4V153.6C1022.836364 69.818182 954.181818 1.163636 870.4 1.163636zM297.890909 585.309091c-22.109091 12.8-48.872727 18.618182-80.290909 18.618182-34.909091 0-62.836364-10.472727-83.781818-30.254546-20.945455-19.781818-30.254545-46.545455-30.254546-81.454545s11.636364-62.836364 33.745455-84.945455c22.109091-22.109091 52.363636-32.581818 88.436364-32.581818 23.272727 0 44.218182 3.490909 61.672727 10.472727V430.545455c-17.454545-10.472727-38.4-15.127273-62.836364-15.127273-20.945455 0-38.4 6.981818-52.363636 20.945454-12.8 13.963636-19.781818 32.581818-19.781818 54.690909 0 23.272727 5.818182 40.727273 17.454545 54.69091s27.927273 19.781818 48.872727 19.781818c12.8 0 22.109091-2.327273 30.254546-5.818182v-45.381818h-45.381818v-38.4h91.927272v109.381818z m139.636364-101.236364c-5.818182-3.490909-12.8-4.654545-20.945455-4.654545-10.472727 0-18.618182 3.490909-24.436363 11.636363s-9.309091 18.618182-9.309091 32.581819v75.636363h-46.545455V442.181818h46.545455v30.254546c8.145455-22.109091 22.109091-32.581818 41.890909-32.581819 5.818182 0 9.309091 1.163636 12.8 2.327273v41.890909z m153.6 116.363637H546.909091v-23.272728c-10.472727 17.454545-26.763636 26.763636-47.709091 26.763637-15.127273 0-26.763636-4.654545-36.072727-12.8s-13.963636-19.781818-13.963637-34.909091c0-30.254545 18.618182-47.709091 54.690909-53.527273l43.054546-5.818182c0-18.618182-9.309091-27.927273-29.090909-27.927272-18.618182 0-37.236364 5.818182-53.527273 17.454545v-36.072727c6.981818-3.490909 16.290909-6.981818 29.090909-9.309091 11.636364-2.327273 22.109091-3.490909 30.254546-3.490909 44.218182 0 66.327273 22.109091 66.327272 66.327272v96.581819z m158.254545-115.2c-10.472727-8.145455-22.109091-11.636364-34.909091-11.636364-13.963636 0-25.6 4.654545-33.745454 12.8-8.145455 8.145455-12.8 20.945455-12.8 34.909091s3.490909 25.6 11.636363 33.745454c8.145455 8.145455 18.618182 12.8 32.581819 12.8 12.8 0 24.436364-3.490909 36.072727-11.636363V593.454545c-11.636364 6.981818-26.763636 9.309091-47.709091 9.309091-24.436364 0-44.218182-6.981818-58.181818-22.109091-15.127273-15.127273-22.109091-33.745455-22.109091-57.018181 0-26.763636 8.145455-47.709091 24.436363-64 16.290909-15.127273 37.236364-23.272727 64-23.272728 18.618182 0 31.418182 2.327273 39.563637 6.981819v41.890909z m173.381818 48.872727h-104.727272c1.163636 24.436364 16.290909 37.236364 44.218181 37.236364 17.454545 0 32.581818-4.654545 46.545455-12.8v33.745454c-13.963636 8.145455-33.745455 11.636364-57.018182 11.636364-25.6 0-45.381818-6.981818-59.345454-20.945455s-20.945455-33.745455-20.945455-59.345454c0-25.6 6.981818-45.381818 22.109091-61.672728 15.127273-16.290909 33.745455-23.272727 55.854545-23.272727s39.563636 6.981818 52.363637 20.945455c12.8 13.963636 18.618182 32.581818 18.618182 55.854545v18.618182z" fill="#d81e06" p-id="18197"></path></svg>