<?xml version="1.0" standalone="no"?><!DOCTYPE svg PUBLIC "-//W3C//DTD SVG 1.1//EN" "http://www.w3.org/Graphics/SVG/1.1/DTD/svg11.dtd"><svg t="1727550094746" class="icon" viewBox="0 0 1024 1024" version="1.1" xmlns="http://www.w3.org/2000/svg" p-id="8938" xmlns:xlink="http://www.w3.org/1999/xlink" width="48" height="48"><path d="M40.96 61.44h942.08v204.8H40.96V61.44z m440.32 30.72v122.88h122.88V92.16H481.28z m174.08 0v122.88h122.88V92.16H655.36z m174.08 0v122.88h122.88V92.16H829.44zM593.92 624.64H40.96V419.84h942.08v133.12h-30.72V450.56H829.44v81.92h-51.2v-81.92H655.36v102.4h-20.48v20.48h348.16v51.2H614.4v-51.2h368.64v51.2H593.92h20.48v-30.72h-20.48v30.72zM481.28 450.56v122.88h122.88V450.56H481.28zM573.44 778.24v30.72h-92.16v122.88h92.16v51.2H40.96V778.24h532.48z" fill="#E5FBF2" p-id="8939"></path><path d="M1024 665.6H0V358.4h1024v307.2z m0 51.2v307.2H0V716.8h1024z m0-409.6H0V0h1024v307.2zM20.48 20.48v266.24h983.04V20.48H20.48z m0 358.4v266.24h983.04V378.88H20.48z m0 358.4v266.24h983.04V737.28H20.48z m604.16 286.72v-20.48h378.88v20.48H624.64z m-30.72-286.72v-20.48h409.6v20.48H593.92z m430.08 286.72V593.92h-20.48v430.08h20.48zM573.44 665.6v-20.48h430.08v20.48H573.44z" fill="#06155F" p-id="8940"></path><path d="M501.76 153.6h81.92v40.96h-81.92zM501.76 512h81.92v40.96h-81.92zM501.76 870.4h71.68v40.96h-71.68z" fill="#6AF5F0" p-id="8941"></path><path d="M829.44 92.16h122.88v122.88H829.44V92.16z m20.48 20.48v81.92h81.92v-81.92h-81.92zM655.36 92.16h122.88v122.88H655.36V92.16z m20.48 20.48v81.92h81.92v-81.92h-81.92zM481.28 92.16h122.88v122.88H481.28V92.16z m20.48 20.48v81.92h81.92v-81.92h-81.92zM829.44 450.56h122.88v122.88H829.44V450.56z m20.48 20.48v81.92h81.92v-81.92h-81.92z m-20.48 81.92v20.48h122.88v-20.48H829.44z m0-20.48v20.48h20.48v-20.48h-20.48z m102.4 0v20.48h20.48v-20.48h-20.48zM655.36 450.56h122.88v122.88H655.36V450.56z m20.48 20.48v81.92h81.92v-81.92h-81.92z m-20.48 81.92v20.48h122.88v-20.48H655.36z m102.4-20.48v20.48h20.48v-20.48h-20.48zM481.28 450.56h122.88v122.88H481.28V450.56z m20.48 20.48v81.92h81.92v-81.92h-81.92zM481.28 808.96h122.88v122.88H481.28V808.96z m20.48 20.48v81.92h81.92v-81.92h-81.92z m71.68-20.48v20.48h30.72v-20.48h-30.72z m0 102.4v20.48h30.72v-20.48h-30.72z m10.24-81.92v81.92h20.48v-81.92h-20.48z" fill="#06155F" p-id="8942"></path><path d="M655.36 696.32a163.84 61.44 0 1 0 327.68 0 163.84 61.44 0 1 0-327.68 0Z" fill="#6AF5F0" p-id="8943"></path><path d="M941.32224 737.28H983.04v215.04h-2.26304c-13.0048 29.06112-80.39424 51.2-161.57696 51.2s-148.5824-22.13888-161.57696-51.2H655.36V737.28h41.71776c30.0032 12.56448 73.59488 20.48 122.12224 20.48s92.11904-7.91552 122.12224-20.48z" fill="#E5FBF2" p-id="8944"></path><path d="M819.2 778.24c-113.11104 0-204.8-45.84448-204.8-102.4s91.68896-102.4 204.8-102.4 204.8 45.84448 204.8 102.4-91.68896 102.4-204.8 102.4z m0-20.48c101.79584 0 184.32-36.67968 184.32-81.92s-82.52416-81.92-184.32-81.92-184.32 36.67968-184.32 81.92 82.52416 81.92 184.32 81.92z" fill="#06155F" p-id="8945"></path><path d="M655.34976 737.28c5.76512 3.84 12.06272 7.4752 18.8416 10.86464C649.55392 762.07104 634.88 779.63264 634.88 798.72c0 45.24032 82.52416 81.92 184.32 81.92s184.32-36.67968 184.32-81.92c0-19.08736-14.68416-36.64896-39.30112-50.57536A177.92 177.92 0 0 0 983.06048 737.28c25.7024 17.11104 40.93952 38.38976 40.93952 61.44 0 56.55552-91.68896 102.4-204.8 102.4s-204.8-45.84448-204.8-102.4c0-23.05024 15.23712-44.32896 40.94976-61.44z" fill="#06155F" p-id="8946"></path><path d="M655.34976 860.16c5.76512 3.84 12.06272 7.4752 18.8416 10.86464C649.55392 884.95104 634.88 902.51264 634.88 921.6c0 45.24032 82.52416 81.92 184.32 81.92s184.32-36.67968 184.32-81.92c0-19.08736-14.68416-36.64896-39.30112-50.57536A177.92 177.92 0 0 0 983.06048 860.16c25.7024 17.11104 40.93952 38.38976 40.93952 61.44 0 56.55552-91.68896 102.4-204.8 102.4s-204.8-45.84448-204.8-102.4c0-23.05024 15.23712-44.32896 40.94976-61.44z" fill="#06155F" p-id="8947"></path></svg>