<?xml version="1.0" standalone="no"?><!DOCTYPE svg PUBLIC "-//W3C//DTD SVG 1.1//EN" "http://www.w3.org/Graphics/SVG/1.1/DTD/svg11.dtd"><svg t="1727550163880" class="icon" viewBox="0 0 1024 1024" version="1.1" xmlns="http://www.w3.org/2000/svg" p-id="11717" xmlns:xlink="http://www.w3.org/1999/xlink" width="48" height="48"><path d="M263.687 557.006c-29.996 33.126-55.392 36.634-76.116 117.924-14.232 66.619-5.456 141.453 27.393 183.253 31.851-11.73 57.782-33.311 105.004-45.183 32.103-10.708 71.016-7.999 101.973-12.398L263.687 557.006z m497.212 0c29.996 33.126 55.392 36.634 76.117 117.924 14.232 66.619 5.459 141.453-27.392 183.253-31.851-11.73-57.78-33.311-105.006-45.183-32.1-10.708-71.014-7.999-101.97-12.398l158.251-243.596z" fill="#FFC8B5" p-id="11718"></path><path d="M730.278 245.183C656.395 133.314 523.032 76 523.032 76S374.27 135.543 309.44 251.525c-35.094 56.157-46.524 142.451-46.524 211.479 0 163.88 164.952 375.192 164.952 375.192h183.986s160.722-209.76 160.722-374.133c0.2-73.704 5.452-157.155-42.298-218.88z m-212.4 264.345c-61.89 0-112.083-50.176-112.083-112.081 0-61.909 50.193-112.085 112.083-112.085S629.96 335.538 629.96 397.447c0 61.907-50.193 112.08-112.083 112.08z" fill="#FC5A22" p-id="11719"></path><path d="M517.878 345.007c-30.96 0-56.04 25.096-56.04 56.042s25.08 56.043 56.04 56.043c30.962 0 56.042-25.097 56.042-56.043 0-30.948-25.08-56.042-56.042-56.042zM510.66 941.221l-67.916-70.265a9.035 9.035 0 0 1 6.497-15.315h137.702a9.035 9.035 0 0 1 6.41 15.402l-69.785 70.266a9.035 9.035 0 0 1-12.908-0.088z" fill="#FFC8B5" p-id="11720"></path></svg>