<?xml version="1.0" standalone="no"?><!DOCTYPE svg PUBLIC "-//W3C//DTD SVG 1.1//EN" "http://www.w3.org/Graphics/SVG/1.1/DTD/svg11.dtd"><svg t="1727550238218" class="icon" viewBox="0 0 1024 1024" version="1.1" xmlns="http://www.w3.org/2000/svg" p-id="14267" xmlns:xlink="http://www.w3.org/1999/xlink" width="48" height="48"><path d="M731.428571 1024H292.571429c-160.914286 0-292.571429-131.657143-292.571429-292.571429V292.571429c0-160.914286 131.657143-292.571429 292.571429-292.571429h438.857142c160.914286 0 292.571429 131.657143 292.571429 292.571429v438.857142c0 160.914286-131.657143 292.571429-292.571429 292.571429z" fill="#3471FF" p-id="14268"></path><path d="M146.285714 610.742857l32.914286-201.142857c3.657143-18.285714 18.285714-25.6 36.571429-29.257143 18.285714 0 29.257143 10.971429 36.571428 25.6L296.228571 548.571429l43.885715-142.628572c7.314286-14.628571 18.285714-25.6 36.571428-25.6s29.257143 10.971429 36.571429 29.257143l32.914286 201.142857v7.314286c0 14.628571-10.971429 25.6-25.6 25.6-18.285714 0-25.6-7.314286-29.257143-25.6l-21.942857-146.285714L325.485714 621.714286c-3.657143 14.628571-14.628571 21.942857-29.257143 21.942857s-25.6-7.314286-29.257142-21.942857l-43.885715-149.942857-21.942857 146.285714c-3.657143 18.285714-10.971429 25.6-29.257143 25.6s-25.6-10.971429-25.6-25.6v-7.314286zM533.942857 621.714286l-80.457143-201.142857c0-3.657143-3.657143-7.314286-3.657143-14.628572 0-14.628571 10.971429-25.6 25.6-25.6 10.971429 0 18.285714 7.314286 25.6 18.285714l54.857143 149.942858 54.857143-149.942858c7.314286-10.971429 14.628571-18.285714 25.6-18.285714 18.285714 0 25.6 10.971429 29.257143 25.6 0 3.657143 0 10.971429-3.657143 14.628572L585.142857 621.714286c-3.657143 14.628571-14.628571 21.942857-25.6 21.942857-14.628571 0-21.942857-7.314286-25.6-21.942857zM672.914286 512c7.314286-84.114286 47.542857-128 124.342857-131.657143 51.2 3.657143 76.8 14.628571 76.8 40.228572 0 14.628571-7.314286 21.942857-21.942857 25.6-3.657143 0-10.971429 0-18.285715-3.657143s-21.942857-7.314286-36.571428-7.314286c-43.885714 3.657143-65.828571 29.257143-69.485714 80.457143 3.657143 51.2 25.6 76.8 69.485714 80.457143 18.285714 0 29.257143-3.657143 40.228571-10.971429 7.314286-3.657143 14.628571-7.314286 18.285715-7.314286 14.628571 0 21.942857 10.971429 25.6 25.6 0 25.6-29.257143 40.228571-80.457143 40.228572-80.457143-3.657143-124.342857-47.542857-128-131.657143z" fill="#FFFFFF" p-id="14269"></path></svg>