<?xml version="1.0" standalone="no"?><!DOCTYPE svg PUBLIC "-//W3C//DTD SVG 1.1//EN" "http://www.w3.org/Graphics/SVG/1.1/DTD/svg11.dtd"><svg t="1727549969186" class="icon" viewBox="0 0 1024 1024" version="1.1" xmlns="http://www.w3.org/2000/svg" p-id="6187" xmlns:xlink="http://www.w3.org/1999/xlink" width="48" height="48"><path d="M921.6 102.4v358.4h-256V102.4h256M358.4 102.4v153.6H102.4V102.4h256m0 460.8v358.4H102.4v-358.4h256m563.2 204.8v153.6h-256v-153.6h256m0-768h-256c-56.32 0-102.4 46.08-102.4 102.4v358.4c0 56.32 46.08 102.4 102.4 102.4h256c56.32 0 102.4-46.08 102.4-102.4V102.4c0-56.32-46.08-102.4-102.4-102.4zM358.4 0H102.4C46.08 0 0 46.08 0 102.4v153.6c0 56.32 46.08 102.4 102.4 102.4h256c56.32 0 102.4-46.08 102.4-102.4V102.4c0-56.32-46.08-102.4-102.4-102.4z m0 460.8H102.4c-56.32 0-102.4 46.08-102.4 102.4v358.4c0 56.32 46.08 102.4 102.4 102.4h256c56.32 0 102.4-46.08 102.4-102.4v-358.4c0-56.32-46.08-102.4-102.4-102.4z m563.2 204.8h-256c-56.32 0-102.4 46.08-102.4 102.4v153.6c0 56.32 46.08 102.4 102.4 102.4h256c56.32 0 102.4-46.08 102.4-102.4v-153.6c0-56.32-46.08-102.4-102.4-102.4z" fill="#FFAC02" p-id="6188"></path></svg>