<?xml version="1.0" standalone="no"?><!DOCTYPE svg PUBLIC "-//W3C//DTD SVG 1.1//EN" "http://www.w3.org/Graphics/SVG/1.1/DTD/svg11.dtd"><svg t="1727550366596" class="icon" viewBox="0 0 1024 1024" version="1.1" xmlns="http://www.w3.org/2000/svg" p-id="17145" xmlns:xlink="http://www.w3.org/1999/xlink" width="48" height="48"><path d="M594.5 234S314.1 564.8 329.4 564.8h161.9l-92 240.2 315-301.4-193.8-4.6 74-265z" fill="#FFB70A" p-id="17146"></path><path d="M732.6 895H290.1l-74.7-129.4 28.9-16.7 65.1 112.7h403.9l73-126.5 29 16.7zM158.9 667.8l-90-156 221.2-383.2h177V162H309.4l-202 349.8 80.4 139.3zM864.3 666.8l-28.9-16.7 79.8-138.3L713.3 162H563.2v-33.4h169.4l221.2 383.2z" fill="#465160" p-id="17147"></path><path d="M491.2 564.7l-91.9 240.2 315-301.4-193.8-4.6" fill="#FF720A" p-id="17148"></path></svg>